HIERARCHY
ROOT SpineBase
{
  OFFSET 0.000000 0.000000 0.000000
  CHANNELS 6 Xposition Yposition Zposition Zrotation Xrotation Yrotation
  JOINT SpineMid
  {
    OFFSET 0.000000 19.942306 0.000000
    CHANNELS 3 Zrotation Xrotation Yrotation
    JOINT SpineShoulder
    {
      OFFSET -0.274403 15.041691 -0.580731
      CHANNELS 3 Zrotation Xrotation Yrotation
      JOINT Neck
      {
        OFFSET -0.219937 5.059443 -0.456798
        CHANNELS 3 Zrotation Xrotation Yrotation
        JOINT Head
        {
          OFFSET 4.719962 8.983564 4.302298
          CHANNELS 3 Zrotation Xrotation Yrotation
          End Site
          {
            OFFSET 0 0 0
          }
        }
      }
      JOINT ShoulderLeft
      {
        OFFSET -3.418624 -11.607940 -9.911598
        CHANNELS 3 Zrotation Xrotation Yrotation
        JOINT ElbowLeft
        {
          OFFSET 2.895440 -21.850098 0.335460
          CHANNELS 3 Zrotation Xrotation Yrotation
          JOINT WristLeft
          {
            OFFSET -22.002176 13.861007 -4.743779
            CHANNELS 3 Zrotation Xrotation Yrotation
            JOINT HandLeft
            {
              OFFSET -35.146407 21.381412 -2.057416
              CHANNELS 3 Zrotation Xrotation Yrotation
              JOINT HandTipLeft
              {
                OFFSET -3.699174 2.542978 4.361381
                CHANNELS 3 Zrotation Xrotation Yrotation
                End Site
                {
                  OFFSET 0 0 0
                }
              }
              JOINT ThumbLeft
              {
                OFFSET -0.344191 -1.202751 -4.650342
                CHANNELS 3 Zrotation Xrotation Yrotation
                End Site
                {
                  OFFSET 0 0 0
                }
              }
            }
          }
        }
      }
      JOINT ShoulderRight
      {
        OFFSET 20.161383 3.241794 -2.130465
        CHANNELS 3 Zrotation Xrotation Yrotation
        JOINT ElbowRight
        {
          OFFSET 19.278338 -7.867776 5.768570
          CHANNELS 3 Zrotation Xrotation Yrotation
          JOINT WristRight
          {
            OFFSET -23.935519 10.657797 -2.596771
            CHANNELS 3 Zrotation Xrotation Yrotation
            JOINT HandRight
            {
              OFFSET -11.563218 9.153499 -3.124106
              CHANNELS 3 Zrotation Xrotation Yrotation
              JOINT HandTipRight
              {
                OFFSET -0.864179 0.879297 -0.707277
                CHANNELS 3 Zrotation Xrotation Yrotation
                End Site
                {
                  OFFSET 0 0 0
                }
              }
              JOINT ThumbRight
              {
                OFFSET 0.387822 -0.869266 -3.223959
                CHANNELS 3 Zrotation Xrotation Yrotation
                End Site
                {
                  OFFSET 0 0 0
                }
              }
            }
          }
        }
      }
    }
  }
  JOINT HipLeft
  {
    OFFSET -6.160180 -1.853125 -6.425278
    CHANNELS 3 Zrotation Xrotation Yrotation
    JOINT KneeLeft
    {
      OFFSET 33.730968 -28.526939 -18.460170
      CHANNELS 3 Zrotation Xrotation Yrotation
      JOINT AnkleLeft
      {
        OFFSET 20.729070 -34.423333 0.182609
        CHANNELS 3 Zrotation Xrotation Yrotation
        JOINT FootLeft
        {
          OFFSET 2.747109 -0.513988 -12.213500
          CHANNELS 3 Zrotation Xrotation Yrotation
          End Site
          {
            OFFSET 0 0 0
          }
        }
      }
    }
  }
  JOINT HipRight
  {
    OFFSET 3.252388 4.115666 0.549680
    CHANNELS 3 Zrotation Xrotation Yrotation
    JOINT KneeRight
    {
      OFFSET -21.999978 12.025382 10.723754
      CHANNELS 3 Zrotation Xrotation Yrotation
      JOINT AnkleRight
      {
        OFFSET 22.006285 -29.153430 -2.513785
        CHANNELS 3 Zrotation Xrotation Yrotation
        JOINT FootRight
        {
          OFFSET 8.398488 -4.636557 -7.854953
          CHANNELS 3 Zrotation Xrotation Yrotation
          End Site
          {
            OFFSET 0 0 0
          }
        }
      }
    }
  }
}
MOTION
Frames: 14
Frame Time: 0.033333
208.493776 65.332944 411.131715 -0.058700 -0.041662 -39.372259 0.018948 0.069443 39.372227 -0.000000 0.000000 0.000000 1.014713 1.395135 -1.229865 0.000000 0.000000 0.000000 -16.363613 1.431259 0.145313 20.287627 -2.066350 0.639389 -3.914176 0.690981 -0.232761 -0.679403 -1.316013 -0.779058 0.000000 0.000000 0.000000 0.000000 0.000000 0.000000 -0.000000 0.000000 0.000000 -0.000000 0.000000 0.000000 8.809690 -17.649474 -15.629336 -31.121955 39.226749 59.214113 0.000000 0.000000 0.000000 0.000000 0.000000 0.000000 0.018948 0.069443 39.372227 -0.000000 0.000000 0.000000 -0.000000 0.000000 0.000000 0.000000 0.000000 0.000000 0.434448 -0.913119 37.752259 0.273055 1.031263 1.620569 -0.144400 -0.642410 -0.930771 0.000000 0.000000 0.000000
208.493733 65.330845 411.151072 -0.052185 -0.052941 -39.247055 0.006920 0.074015 39.247026 -0.000000 0.000000 0.000000 0.975533 1.129110 -1.069774 0.000000 0.000000 0.000000 -12.978463 1.138246 0.081441 16.263690 -1.659741 0.503269 -3.279036 0.558365 -0.231099 -0.294292 -1.649868 -1.955073 0.000000 0.000000 0.000000 0.000000 0.000000 0.000000 -0.000000 0.000000 0.000000 -0.000000 0.000000 0.000000 8.003209 -20.883359 -19.326839 -36.277898 43.103348 71.750741 0.000000 0.000000 0.000000 0.000000 0.000000 0.000000 0.006920 0.074015 39.247026 -0.000000 0.000000 0.000000 -0.000000 0.000000 0.000000 0.000000 0.000000 0.000000 0.429622 -0.836728 37.674088 0.222048 0.979192 1.573854 -0.115725 -0.602845 -0.906251 0.000000 0.000000 0.000000
208.493237 65.337943 411.169543 -0.043531 -0.061898 -39.040365 -0.005177 0.075495 39.040345 -0.000000 0.000000 0.000000 0.904144 0.838191 -0.880566 0.000000 0.000000 0.000000 -8.053119 0.706329 0.019664 10.289651 -1.047319 0.318255 -2.234092 0.356815 -0.197672 0.135782 -0.969039 -1.662518 0.000000 0.000000 0.000000 0.000000 0.000000 0.000000 -0.000000 0.000000 0.000000 -0.000000 0.000000 0.000000 8.022252 -18.791718 -17.231985 -28.775205 45.014429 69.184212 0.000000 0.000000 0.000000 0.000000 0.000000 0.000000 -0.005177 0.075495 39.040345 -0.000000 0.000000 0.000000 -0.000000 0.000000 0.000000 0.000000 0.000000 0.000000 0.434062 -0.689247 37.561941 0.118010 0.873972 1.479856 -0.057789 -0.523059 -0.857214 0.000000 0.000000 0.000000
208.484138 65.348725 411.191787 -0.036631 -0.073075 -38.790894 -0.017228 0.079906 38.790882 -0.000000 0.000000 0.000000 0.801766 0.482583 -0.641964 0.000000 0.000000 0.000000 2.159838 -0.168076 0.014024 -2.159807 0.168485 -0.007680 -0.599378 0.319841 0.473947 0.604211 -3.168456 -4.842855 0.000000 0.000000 0.000000 0.000000 0.000000 0.000000 -0.000000 0.000000 0.000000 -0.000000 0.000000 0.000000 5.454139 -13.845141 -13.597592 -9.649967 44.287735 58.576193 0.000000 0.000000 0.000000 0.000000 0.000000 0.000000 -0.017228 0.079906 38.790882 -0.000000 0.000000 0.000000 -0.000000 0.000000 0.000000 0.000000 0.000000 0.000000 0.444606 -0.478701 37.450397 -0.026979 0.724292 1.342263 0.023477 -0.408236 -0.783582 0.000000 0.000000 0.000000
208.486861 65.371914 411.203375 -0.030710 -0.079587 -38.726888 -0.025833 0.081302 38.726885 -0.000000 0.000000 0.000000 0.760333 0.152454 -0.446516 0.000000 0.000000 0.000000 2.156274 -0.204753 0.009805 -2.156253 0.204977 -0.002094 -0.662744 0.489592 0.751288 0.533014 -3.896966 -5.822641 0.000000 0.000000 0.000000 0.000000 0.000000 0.000000 -0.000000 0.000000 0.000000 -0.000000 0.000000 0.000000 3.507578 -10.094920 -10.522246 -5.144392 41.788283 54.413206 0.000000 0.000000 0.000000 0.000000 0.000000 0.000000 -0.025833 0.081302 38.726885 -0.000000 0.000000 0.000000 -0.000000 0.000000 0.000000 0.000000 0.000000 0.000000 0.469063 -0.366302 37.423850 -0.121029 0.656217 1.304959 0.075822 -0.350253 -0.765694 0.000000 0.000000 0.000000
208.502747 65.409564 411.205797 -0.016719 -0.080892 -38.558266 -0.037347 0.073676 38.558278 -0.000000 0.000000 0.000000 -0.000000 0.000000 0.000000 0.000000 0.000000 0.000000 -8.056368 0.661762 0.010503 10.220717 -0.833743 0.550763 -2.162012 0.197233 -0.436546 0.567178 -2.697729 -5.048789 0.000000 0.000000 0.000000 0.000000 0.000000 0.000000 -0.000000 0.000000 0.000000 -0.000000 0.000000 0.000000 -0.474795 -4.128856 -5.355441 -5.434984 38.455065 51.271452 0.000000 0.000000 0.000000 0.000000 0.000000 0.000000 -0.037347 0.073676 38.558278 -0.000000 0.000000 0.000000 -0.000000 0.000000 0.000000 0.000000 0.000000 0.000000 0.510270 -0.186719 37.324750 -0.277597 0.539102 1.235375 -0.000000 0.000000 0.000000 0.000000 0.000000 0.000000
208.535998 65.458623 411.191122 0.010135 -0.071095 -38.264799 -0.051986 0.049544 38.264828 -0.000000 0.000000 0.000000 -0.000000 0.000000 0.000000 0.000000 0.000000 0.000000 -12.982996 1.062486 0.062465 16.186744 -1.388118 0.761734 -3.156296 0.941632 0.423008 1.142047 -2.825226 -6.350241 0.000000 0.000000 0.000000 0.000000 0.000000 0.000000 -0.000000 0.000000 0.000000 -0.000000 0.000000 0.000000 -0.049821 -3.626191 -4.551823 -5.442517 36.187792 47.081148 0.000000 0.000000 0.000000 0.000000 0.000000 0.000000 -0.051986 0.049544 38.264828 -0.000000 0.000000 0.000000 -0.000000 0.000000 0.000000 0.000000 0.000000 0.000000 0.568640 0.072429 37.152458 -0.508484 0.356578 1.113292 -0.000000 0.000000 0.000000 0.000000 0.000000 0.000000
208.592936 65.519482 411.167887 0.053288 -0.051762 -37.918178 -0.073849 0.008087 37.918207 -0.000000 0.000000 0.000000 -0.000000 0.000000 0.000000 0.000000 0.000000 0.000000 -16.368515 1.334577 0.118053 20.223687 -1.788429 0.870463 -3.629585 1.629448 1.338212 1.323939 -3.272659 -7.725367 0.000000 0.000000 0.000000 0.000000 0.000000 0.000000 -0.000000 0.000000 0.000000 -0.000000 0.000000 0.000000 0.464428 -4.221434 -5.066506 -7.376631 33.500292 42.349409 0.000000 0.000000 0.000000 0.000000 0.000000 0.000000 -0.073849 0.008087 37.918207 -0.000000 0.000000 0.000000 -0.000000 0.000000 0.000000 0.000000 0.000000 0.000000 0.663441 0.377976 36.911014 -0.811652 0.147060 1.005750 -0.000000 0.000000 0.000000 0.000000 0.000000 0.000000
208.654344 65.559280 411.136229 0.099693 -0.030181 -37.568393 -0.097421 -0.036862 37.568388 -0.000000 0.000000 0.000000 -0.000000 0.000000 0.000000 0.000000 0.000000 0.000000 -17.575229 1.430720 0.141748 21.672433 -2.004906 0.806374 -3.858462 2.718005 3.045172 1.710133 -3.668812 -9.123747 0.000000 0.000000 0.000000 0.000000 0.000000 0.000000 -0.000000 0.000000 0.000000 -0.000000 0.000000 0.000000 2.313977 -5.152400 -5.394570 -17.630011 34.747609 44.289286 0.000000 0.000000 0.000000 0.000000 0.000000 0.000000 -0.097421 -0.036862 37.568388 -0.000000 0.000000 0.000000 -0.000000 0.000000 0.000000 0.000000 0.000000 0.000000 0.726176 0.616395 36.670666 -1.050716 -0.032056 0.893263 0.573685 0.197065 -0.608638 0.000000 0.000000 0.000000
208.690531 65.585239 411.105152 0.130935 -0.010229 -37.249742 -0.110417 -0.071112 37.249685 -0.000000 0.000000 0.000000 -0.000000 0.000000 0.000000 0.000000 0.000000 0.000000 -16.368644 1.334724 0.118094 20.279734 -1.991165 0.590604 -3.665394 4.530516 6.092729 1.778764 -4.687004 -11.250477 0.000000 0.000000 0.000000 0.000000 0.000000 0.000000 -0.000000 0.000000 0.000000 -0.000000 0.000000 0.000000 4.794084 -9.211741 -8.903278 -26.836448 35.386585 47.809126 0.000000 0.000000 0.000000 0.000000 0.000000 0.000000 -0.110417 -0.071112 37.249685 -0.000000 0.000000 0.000000 -0.000000 0.000000 0.000000 0.000000 0.000000 0.000000 0.750332 0.802561 36.496356 -1.211584 -0.190312 0.745823 0.657466 0.313597 -0.539497 0.000000 0.000000 0.000000
208.703010 65.597121 411.077807 0.144540 0.005464 -37.061504 -0.112049 -0.091470 37.061407 -0.000000 0.000000 0.000000 -0.000000 0.000000 0.000000 0.000000 0.000000 0.000000 -12.983245 1.062821 0.062547 16.307873 -1.661003 0.396131 -4.141986 8.267080 12.612200 2.374988 -8.507620 -17.976150 0.000000 0.000000 0.000000 0.000000 0.000000 0.000000 -0.000000 0.000000 0.000000 -0.000000 0.000000 0.000000 7.065407 -11.902163 -10.689272 -32.391846 36.056163 51.266735 0.000000 0.000000 0.000000 0.000000 0.000000 0.000000 -0.112049 -0.091470 37.061407 -0.000000 0.000000 0.000000 -0.000000 0.000000 0.000000 0.000000 0.000000 0.000000 0.743539 0.907597 36.438835 -1.281731 -0.295451 0.613173 0.693762 0.387770 -0.467484 0.000000 0.000000 0.000000
208.703222 65.611881 411.051125 0.148570 0.016422 -36.895373 -0.108957 -0.102328 36.895255 -0.000000 0.000000 0.000000 -0.000000 0.000000 0.000000 0.000000 0.000000 0.000000 -8.056765 0.662283 0.010606 10.373638 -1.067761 0.247368 -8.168198 15.662835 27.517319 2.646919 -18.331811 -33.454566 0.000000 0.000000 0.000000 0.000000 0.000000 0.000000 -0.000000 0.000000 0.000000 -0.000000 0.000000 0.000000 5.699748 -12.010303 -11.501987 -33.149393 36.424077 53.431089 0.000000 0.000000 0.000000 0.000000 0.000000 0.000000 -0.108957 -0.102328 36.895255 -0.000000 0.000000 0.000000 -0.000000 0.000000 0.000000 0.000000 0.000000 0.000000 0.730287 1.007935 36.410135 -1.334445 -0.395264 0.473884 0.721190 0.458053 -0.387936 0.000000 0.000000 0.000000
208.673280 65.617671 411.041405 0.134885 0.018002 -36.830342 -0.097173 -0.095266 36.830241 -0.000000 0.000000 0.000000 -0.000000 0.000000 0.000000 0.000000 0.000000 0.000000 -2.426153 0.200951 -0.006388 3.331213 -0.346575 0.095643 -18.116836 22.210289 49.152866 -0.442066 -31.784833 -54.709186 0.000000 0.000000 0.000000 0.000000 0.000000 0.000000 -0.000000 0.000000 0.000000 -0.000000 0.000000 0.000000 5.891386 -10.916850 -10.228310 -30.446467 36.063167 50.725658 0.000000 0.000000 0.000000 0.000000 0.000000 0.000000 -0.097173 -0.095266 36.830241 -0.000000 0.000000 0.000000 -0.000000 0.000000 0.000000 0.000000 0.000000 0.000000 0.701238 1.082094 36.481303 -1.342009 -0.471824 0.336536 0.726671 0.512520 -0.300255 0.000000 0.000000 0.000000
208.628183 65.604144 411.043560 0.110083 0.014577 -36.915208 -0.079259 -0.077774 36.915140 -0.000000 0.000000 0.000000 -0.000000 0.000000 0.000000 0.000000 0.000000 0.000000 3.151187 -0.255538 0.021479 -4.038679 0.444878 -0.006619 -21.735821 22.016258 55.345862 -1.058648 -36.472832 -61.657573 0.000000 0.000000 0.000000 0.000000 0.000000 0.000000 -0.000000 0.000000 0.000000 -0.000000 0.000000 0.000000 4.500175 -8.991775 -8.799940 -24.211671 35.385098 47.313052 0.000000 0.000000 0.000000 0.000000 0.000000 0.000000 -0.079259 -0.077774 36.915140 -0.000000 0.000000 0.000000 -0.000000 0.000000 0.000000 0.000000 0.000000 0.000000 0.643255 1.038035 36.640910 -1.245683 -0.464015 0.263131 0.677600 0.500371 -0.240209 0.000000 0.000000 0.000000
